<?xml version="1.0" standalone="no"?>
<!DOCTYPE svg PUBLIC "-//W3C//DTD SVG 20010904//EN"
 "http://www.w3.org/TR/2001/REC-SVG-20010904/DTD/svg10.dtd">
<svg version="1.0" xmlns="http://www.w3.org/2000/svg"
 width="512.000000pt" height="512.000000pt" viewBox="0 0 512.000000 512.000000"
 preserveAspectRatio="xMidYMid meet">

<g transform="translate(0.000000,512.000000) scale(0.100000,-0.100000)"
fill="#000000" stroke="none">
<path d="M2294 5107 c-27 -15 -87 -86 -119 -142 -67 -113 -92 -287 -61 -419
21 -89 76 -192 141 -265 67 -75 89 -113 110 -185 35 -121 5 -255 -79 -355 -20
-23 -39 -54 -42 -67 -18 -73 49 -138 123 -120 54 14 150 147 184 255 27 85 35
212 20 293 -18 92 -79 212 -150 292 -81 91 -112 158 -118 256 -8 116 12 172
112 309 14 19 25 44 25 57 0 77 -82 128 -146 91z"/>
<path d="M1494 4740 c-58 -23 -137 -160 -156 -269 -23 -137 12 -255 117 -384
106 -131 108 -248 8 -367 -41 -49 -39 -102 6 -142 29 -26 39 -30 75 -25 50 7
101 59 146 151 80 164 50 364 -74 503 -56 63 -76 103 -83 168 -7 66 15 135 62
194 53 66 47 134 -15 166 -32 17 -54 18 -86 5z"/>
<path d="M3099 4735 c-15 -8 -43 -37 -63 -64 -133 -181 -121 -406 33 -585 101
-118 108 -232 21 -348 -30 -39 -40 -62 -40 -90 0 -52 33 -88 88 -95 41 -6 45
-4 91 44 156 162 159 423 6 602 -85 100 -108 173 -81 264 9 30 30 71 47 93 17
21 35 50 40 63 12 29 -4 81 -30 105 -26 24 -81 29 -112 11z"/>
<path d="M538 3271 l-33 -29 0 -409 c1 -498 15 -634 99 -897 l35 -109 -40 -46
c-164 -186 -213 -453 -119 -643 l28 -58 -214 0 c-238 0 -261 -5 -284 -60 -16
-39 -7 -141 21 -224 63 -187 235 -341 428 -382 42 -9 131 -14 248 -14 l181 0
18 -56 c36 -115 140 -236 247 -288 119 -58 83 -56 1184 -56 700 0 1028 3 1065
11 168 35 314 164 369 328 l21 61 181 0 c293 0 393 33 532 174 90 91 137 174
161 285 25 121 13 184 -41 209 -19 9 -161 12 -531 12 l-505 0 80 98 c93 114
168 226 237 351 l49 91 191 0 c297 0 430 32 599 145 368 245 481 724 262 1115
-51 90 -204 248 -289 299 -65 38 -147 72 -234 98 -54 16 -130 18 -884 21 -614
2 -831 0 -853 -9 -15 -7 -34 -24 -42 -40 -24 -45 -19 -77 19 -115 l34 -34 612
0 613 0 -6 -357 c-6 -376 -15 -462 -66 -660 -86 -335 -258 -640 -507 -902
l-96 -101 -970 0 -970 0 51 57 c60 68 123 183 147 273 25 93 23 237 -5 314
-71 199 -233 310 -451 309 -92 -1 -140 -11 -238 -50 -35 -14 -65 -23 -68 -21
-2 3 -17 56 -33 119 -54 207 -63 294 -68 672 l-5 347 612 0 612 0 34 34 c37
37 43 70 20 115 -8 15 -26 32 -41 39 -19 9 -198 12 -695 12 l-670 0 -32 -29z
m3896 -191 c284 -72 486 -330 486 -620 0 -299 -218 -564 -512 -624 -98 -20
-372 -23 -365 -3 3 6 20 60 38 120 l34 107 97 0 c120 0 186 13 261 53 72 38
130 101 171 187 28 59 31 74 31 160 0 86 -3 102 -31 160 -75 158 -206 240
-384 240 l-80 0 0 120 0 120 88 0 c56 0 118 -7 166 -20z m-63 -443 c24 -13 57
-43 74 -66 25 -36 30 -52 30 -104 0 -82 -26 -132 -90 -172 -43 -27 -59 -30
-142 -33 l-94 -4 5 24 c8 34 26 254 26 321 l0 57 73 0 c58 0 83 -5 118 -23z
m-3212 -804 c22 -5 23 -10 18 -54 -13 -106 -87 -189 -204 -227 -131 -42 -230
-126 -288 -246 l-33 -69 -11 39 c-23 81 -5 192 47 288 38 71 154 185 225 220
90 45 188 65 246 49z m221 -209 c45 -214 -155 -484 -395 -534 -30 -6 -73 -10
-97 -8 -41 3 -43 5 -46 37 -5 48 24 117 69 166 38 41 64 55 162 90 116 41 231
151 273 260 9 25 18 45 20 45 1 0 8 -25 14 -56z m3080 -757 c0 -32 -56 -121
-106 -166 -95 -87 -127 -95 -429 -101 -176 -3 -267 -9 -281 -17 -25 -15 -40
-51 -48 -116 -13 -105 -71 -189 -164 -234 l-57 -28 -1035 0 -1035 0 -57 28
c-93 45 -151 129 -164 234 -8 65 -23 101 -48 116 -14 8 -105 14 -281 17 -240
5 -264 7 -317 28 -92 37 -181 129 -217 225 l-11 27 2125 0 c1740 0 2125 -2
2125 -13z"/>
<path d="M2291 3286 c-30 -17 -50 -52 -51 -89 0 -41 57 -97 100 -97 41 0 100
56 100 94 0 80 -80 130 -149 92z"/>
</g>
</svg>
