<?xml version="1.0" encoding="UTF-8"?>
<!DOCTYPE svg PUBLIC "-//W3C//DTD SVG 1.1//EN" "http://www.w3.org/Graphics/SVG/1.1/DTD/svg11.dtd">
<svg xmlns="http://www.w3.org/2000/svg" version="1.1" width="40px" height="40px" fill="#fff" style="shape-rendering:geometricPrecision; text-rendering:geometricPrecision; image-rendering:optimizeQuality; fill-rule:evenodd; clip-rule:evenodd" xmlns:xlink="http://www.w3.org/1999/xlink">
<g><path  fill="#FFF" d="M 338.5,-0.5 C 347.833,-0.5 357.167,-0.5 366.5,-0.5C 379.471,1.88294 391.805,6.38294 403.5,13C 408.246,15.6331 409.579,19.4664 407.5,24.5C 405.523,26.7393 403.023,28.0726 400,28.5C 359.487,5.90476 322.321,10.4048 288.5,42C 270.897,60.032 258.564,81.1986 251.5,105.5C 248.595,112.127 247.095,119.127 247,126.5C 262.162,145.139 270.996,166.472 273.5,190.5C 297.051,185.815 319.717,188.481 341.5,198.5C 341.833,198.333 342.167,198.167 342.5,198C 337.338,188.819 331.338,180.319 324.5,172.5C 313.446,157.339 307.78,140.339 307.5,121.5C 309.378,96.4663 320.711,76.9663 341.5,63C 356.107,58.3053 365.107,63.4719 368.5,78.5C 366.3,86.5734 363.8,94.5734 361,102.5C 359.081,113.165 360.747,123.165 366,132.5C 372.333,140.833 378.667,149.167 385,157.5C 395.847,176.274 399.014,196.274 394.5,217.5C 392.297,223.752 389.631,229.918 386.5,236C 396.315,250.294 404.315,265.627 410.5,282C 410.85,283.257 411.517,283.591 412.5,283C 417.037,278.631 421.37,274.131 425.5,269.5C 443.747,245.959 454.914,219.292 459,189.5C 465.842,145.208 457.842,103.875 435,65.5C 429.756,57.5856 423.756,50.2523 417,43.5C 415.111,39.7625 415.278,36.0959 417.5,32.5C 420.844,30.5731 424.178,30.4064 427.5,32C 457.029,63.5386 473.195,101.039 476,144.5C 480.06,194.954 467.06,240.288 437,280.5C 430.629,288.037 423.795,295.037 416.5,301.5C 428.13,352.129 421.963,400.462 398,446.5C 384.394,471.44 364.894,490.273 339.5,503C 330.318,506.787 320.985,509.62 311.5,511.5C 302.167,511.5 292.833,511.5 283.5,511.5C 252.688,505.342 227.855,489.676 209,464.5C 189.491,437.324 177.824,406.991 174,373.5C 133.226,390.299 96.8922,383.632 65,353.5C 60.8278,348.48 57.1612,343.147 54,337.5C 53.2951,333.917 54.4618,331.251 57.5,329.5C 60.5457,328.115 63.5457,328.281 66.5,330C 88.5977,361.981 118.598,373.148 156.5,363.5C 162.017,362.078 167.35,360.078 172.5,357.5C 171.973,318.957 181.14,282.957 200,249.5C 211.075,231.091 225.575,215.925 243.5,204C 248.474,200.679 253.807,198.179 259.5,196.5C 259.119,189.196 257.786,182.196 255.5,175.5C 241.44,126.473 209.107,104.973 158.5,111C 127.266,120.228 102.099,138.062 83,164.5C 56.0321,202.372 45.6988,244.372 52,290.5C 53.5015,296.506 55.0015,302.506 56.5,308.5C 56.423,310.299 55.923,311.966 55,313.5C 53.4815,314.163 52.3149,315.163 51.5,316.5C 47.8084,317.029 44.6417,316.029 42,313.5C 25.2504,246.092 40.2504,186.758 87,135.5C 107.429,114.766 131.929,101.266 160.5,95C 187.251,90.5634 211.417,96.3968 233,112.5C 241.363,76.2487 259.529,46.082 287.5,22C 302.714,10.3226 319.714,2.82265 338.5,-0.5 Z"/></g>
<g><path  fill="#fff" d="M 407.5,24.5 C 410.794,27.1558 414.127,29.8225 417.5,32.5C 415.278,36.0959 415.111,39.7625 417,43.5C 423.756,50.2523 429.756,57.5856 435,65.5C 457.842,103.875 465.842,145.208 459,189.5C 454.914,219.292 443.747,245.959 425.5,269.5C 420.789,261.083 416.289,252.416 412,243.5C 406.394,234.603 400.561,225.937 394.5,217.5C 399.014,196.274 395.847,176.274 385,157.5C 378.667,149.167 372.333,140.833 366,132.5C 360.747,123.165 359.081,113.165 361,102.5C 363.8,94.5734 366.3,86.5734 368.5,78.5C 365.107,63.4719 356.107,58.3053 341.5,63C 320.711,76.9663 309.378,96.4663 307.5,121.5C 307.78,140.339 313.446,157.339 324.5,172.5C 324.083,173.124 323.416,173.457 322.5,173.5C 314.208,172.071 305.874,170.904 297.5,170C 288.284,165.756 282.784,158.589 281,148.5C 274.107,132.015 264.274,117.682 251.5,105.5C 258.564,81.1986 270.897,60.032 288.5,42C 322.321,10.4048 359.487,5.90476 400,28.5C 403.023,28.0726 405.523,26.7393 407.5,24.5 Z"/></g>
<g><path  fill="#fff" d="M 347.5,76.5 C 349.199,76.3398 350.866,76.5065 352.5,77C 353.022,77.5613 353.355,78.228 353.5,79C 342.674,99.9734 342.84,120.807 354,141.5C 359.667,148.833 365.333,156.167 371,163.5C 382.052,180.75 384.386,199.083 378,218.5C 377.252,220.332 376.252,221.999 375,223.5C 370.301,218.466 365.301,213.8 360,209.5C 359.544,200.464 356.877,192.131 352,184.5C 344.611,174.777 337.611,164.777 331,154.5C 315.739,123.966 321.239,97.9661 347.5,76.5 Z"/></g>
<g><path  fill="#fff" d="M 251.5,105.5 C 264.274,117.682 274.107,132.015 281,148.5C 282.784,158.589 288.284,165.756 297.5,170C 305.874,170.904 314.208,172.071 322.5,173.5C 323.416,173.457 324.083,173.124 324.5,172.5C 331.338,180.319 337.338,188.819 342.5,198C 342.167,198.167 341.833,198.333 341.5,198.5C 319.717,188.481 297.051,185.815 273.5,190.5C 270.996,166.472 262.162,145.139 247,126.5C 247.095,119.127 248.595,112.127 251.5,105.5 Z"/></g>
<g><path  fill="#fff" d="M 255.5,175.5 C 255.67,176.822 255.337,177.989 254.5,179C 232.583,188.248 214.083,202.082 199,220.5C 193.97,227.683 188.803,234.683 183.5,241.5C 181.981,234.772 180.147,228.105 178,221.5C 175.851,209.561 178.518,198.895 186,189.5C 189.667,185.833 193.333,182.167 197,178.5C 202.985,166.947 200.152,158.113 188.5,152C 159.984,153.155 140.151,166.989 129,193.5C 126.282,200.588 124.782,207.921 124.5,215.5C 125.906,229.695 128.406,243.695 132,257.5C 133.761,266.536 132.095,274.869 127,282.5C 122.7,287.801 118.034,292.801 113,297.5C 108.004,305.878 108.838,313.712 115.5,321C 118.713,323.572 122.38,325.072 126.5,325.5C 137.648,323.453 147.981,319.453 157.5,313.5C 158.147,314.274 158.48,315.274 158.5,316.5C 156.73,332.11 156.063,347.777 156.5,363.5C 118.598,373.148 88.5977,361.981 66.5,330C 63.5457,328.281 60.5457,328.115 57.5,329.5C 54.7347,325.545 52.7347,321.212 51.5,316.5C 52.3149,315.163 53.4815,314.163 55,313.5C 55.923,311.966 56.423,310.299 56.5,308.5C 55.0015,302.506 53.5015,296.506 52,290.5C 45.6988,244.372 56.0321,202.372 83,164.5C 102.099,138.062 127.266,120.228 158.5,111C 209.107,104.973 241.44,126.473 255.5,175.5 Z"/></g>
<g><path  fill="#fff" d="M 183.5,241.5 C 188.879,270.703 180.213,294.703 157.5,313.5C 147.981,319.453 137.648,323.453 126.5,325.5C 122.38,325.072 118.713,323.572 115.5,321C 108.838,313.712 108.004,305.878 113,297.5C 118.034,292.801 122.7,287.801 127,282.5C 132.095,274.869 133.761,266.536 132,257.5C 128.406,243.695 125.906,229.695 124.5,215.5C 124.782,207.921 126.282,200.588 129,193.5C 140.151,166.989 159.984,153.155 188.5,152C 200.152,158.113 202.985,166.947 197,178.5C 193.333,182.167 189.667,185.833 186,189.5C 178.518,198.895 175.851,209.561 178,221.5C 180.147,228.105 181.981,234.772 183.5,241.5 Z"/></g>
<g><path  fill="#fff" d="M 177.5,166.5 C 179.857,166.337 182.19,166.503 184.5,167C 184.957,167.414 185.291,167.914 185.5,168.5C 174.467,177.899 166.967,189.566 163,203.5C 162.335,211.536 162.669,219.536 164,227.5C 170.504,244.603 171.171,261.936 166,279.5C 158.384,296.28 145.55,306.614 127.5,310.5C 125.525,309.725 124.691,308.391 125,306.5C 135.955,297.885 143.288,286.885 147,273.5C 147.667,267.5 147.667,261.5 147,255.5C 143.151,242.423 140.651,229.09 139.5,215.5C 141.861,191.086 154.528,174.752 177.5,166.5 Z"/></g>
<g><path  fill="#fff" d="M 255.5,175.5 C 257.786,182.196 259.119,189.196 259.5,196.5C 253.807,198.179 248.474,200.679 243.5,204C 225.575,215.925 211.075,231.091 200,249.5C 181.14,282.957 171.973,318.957 172.5,357.5C 167.35,360.078 162.017,362.078 156.5,363.5C 156.063,347.777 156.73,332.11 158.5,316.5C 158.48,315.274 158.147,314.274 157.5,313.5C 180.213,294.703 188.879,270.703 183.5,241.5C 188.803,234.683 193.97,227.683 199,220.5C 214.083,202.082 232.583,188.248 254.5,179C 255.337,177.989 255.67,176.822 255.5,175.5 Z"/></g>
<g><path  fill="#fff" d="M 399.5,298.5 C 404.009,343.81 393.842,385.477 369,423.5C 354.001,444.837 334.167,459.67 309.5,468C 281.128,475.791 254.795,471.458 230.5,455C 223.983,449.976 217.65,444.809 211.5,439.5C 185.58,390.378 181.413,339.378 199,286.5C 209.016,256.924 226.849,233.424 252.5,216C 289.431,196.494 324.097,199.827 356.5,226C 377.886,245.931 392.219,270.098 399.5,298.5 Z"/></g>
<g><path  fill="#fff" d="M 394.5,217.5 C 400.561,225.937 406.394,234.603 412,243.5C 416.289,252.416 420.789,261.083 425.5,269.5C 421.37,274.131 417.037,278.631 412.5,283C 411.517,283.591 410.85,283.257 410.5,282C 404.315,265.627 396.315,250.294 386.5,236C 389.631,229.918 392.297,223.752 394.5,217.5 Z"/></g>
<g><path  fill="#fff" d="M 332.5,367.5 C 328.906,369.081 325.739,368.414 323,365.5C 321.607,361.714 319.941,358.048 318,354.5C 311.667,346.167 305.333,337.833 299,329.5C 288.105,310.047 287.771,290.38 298,270.5C 298.743,268.559 298.576,266.726 297.5,265C 294.478,264.836 291.811,265.836 289.5,268C 266.995,288.535 262.162,312.701 275,340.5C 281.508,350.85 288.508,360.85 296,370.5C 304.474,383.742 306.807,398.075 303,413.5C 300.737,419.456 298.57,425.456 296.5,431.5C 297.305,435.406 299.305,436.239 302.5,434C 318.523,421.459 327.357,404.959 329,384.5C 330.897,382.984 333.064,382.317 335.5,382.5C 341.858,384.548 344.025,388.881 342,395.5C 338.122,419.119 325.955,436.952 305.5,449C 291.504,451.515 283.504,445.682 281.5,431.5C 283.679,423.455 286.179,415.455 289,407.5C 290.622,398.319 289.289,389.653 285,381.5C 275.337,368.849 266.671,355.515 259,341.5C 245.433,302.53 255.933,272.03 290.5,250C 307.24,249.072 314.74,256.906 313,273.5C 304.077,288.884 303.41,304.551 311,320.5C 320.899,331.74 329.233,344.074 336,357.5C 337.419,361.872 336.252,365.206 332.5,367.5 Z"/></g>
<g><path  fill="#fff" d="M 332.5,367.5 C 332.885,372.646 333.885,377.646 335.5,382.5C 333.064,382.317 330.897,382.984 329,384.5C 327.357,404.959 318.523,421.459 302.5,434C 299.305,436.239 297.305,435.406 296.5,431.5C 298.57,425.456 300.737,419.456 303,413.5C 306.807,398.075 304.474,383.742 296,370.5C 288.508,360.85 281.508,350.85 275,340.5C 262.162,312.701 266.995,288.535 289.5,268C 291.811,265.836 294.478,264.836 297.5,265C 298.576,266.726 298.743,268.559 298,270.5C 287.771,290.38 288.105,310.047 299,329.5C 305.333,337.833 311.667,346.167 318,354.5C 319.941,358.048 321.607,361.714 323,365.5C 325.739,368.414 328.906,369.081 332.5,367.5 Z"/></g>
<g><path  fill="#fff" d="M 399.5,298.5 C 412.734,347.403 407.567,394.403 384,439.5C 368.526,467.641 345.36,486.141 314.5,495C 286.686,499.725 262.02,493.059 240.5,475C 228.791,464.697 219.124,452.863 211.5,439.5C 217.65,444.809 223.983,449.976 230.5,455C 254.795,471.458 281.128,475.791 309.5,468C 334.167,459.67 354.001,444.837 369,423.5C 393.842,385.477 404.009,343.81 399.5,298.5 Z"/></g>
</svg>
